<svg width="40" height="55" viewBox="0 0 40 55" fill="none" xmlns="http://www.w3.org/2000/svg">
<path d="M18.1036 0.588096C19.249 -0.196032 20.7485 -0.196032 21.894 0.588096L23.7475 1.84485C24.3723 2.26377 25.1013 2.46785 25.8406 2.42489L28.0586 2.28525C29.4332 2.19932 30.7244 2.9727 31.3388 4.2402L32.3385 6.29182C32.6717 6.97927 33.2132 7.52709 33.8692 7.87081L35.879 8.91274C37.1077 9.54648 37.8575 10.8784 37.7742 12.2963L37.6388 14.5842C37.5971 15.3469 37.795 16.1095 38.2011 16.7433L39.4299 18.6553C40.19 19.8368 40.19 21.3836 39.4299 22.5652L38.2011 24.4879C37.795 25.1324 37.5971 25.8843 37.6388 26.6469L37.7742 28.9348C37.8575 30.3527 37.1077 31.6847 35.879 32.3184L33.89 33.3496C33.2236 33.6933 32.6925 34.2519 32.3593 34.9286L31.3492 37.0017C30.7348 38.2692 29.4436 39.0426 28.069 38.9566L25.851 38.817C25.1117 38.774 24.3723 38.9781 23.758 39.397L21.9044 40.6645C20.759 41.4487 19.2594 41.4487 18.114 40.6645L16.25 39.397C15.6252 38.9781 14.8963 38.774 14.157 38.817L11.9389 38.9566C10.5644 39.0426 9.27316 38.2692 8.65878 37.0017L7.65911 34.9501C7.32589 34.2626 6.7844 33.7148 6.12837 33.3711L4.11861 32.3291C2.88985 31.6954 2.1401 30.3635 2.2234 28.9456L2.35878 26.6576C2.40043 25.895 2.20258 25.1324 1.79646 24.4986L0.578114 22.5759C-0.182052 21.3943 -0.182052 19.8476 0.578114 18.666L1.79646 16.754C2.20258 16.1095 2.40043 15.3576 2.35878 14.595L2.2234 12.307C2.1401 10.8892 2.88985 9.55723 4.11861 8.92348L6.10754 7.8923C6.77398 7.53783 7.31547 6.97927 7.6487 6.29182L8.64837 4.2402C9.26275 2.9727 10.554 2.19932 11.9285 2.28525L14.1466 2.42489C14.8859 2.46785 15.6252 2.26377 16.2396 1.84485L18.1036 0.588096ZM28.3294 20.6209C28.3294 18.3419 27.4517 16.1562 25.8894 14.5446C24.3271 12.9331 22.2082 12.0278 19.9988 12.0278C17.7894 12.0278 15.6705 12.9331 14.1082 14.5446C12.5459 16.1562 11.6682 18.3419 11.6682 20.6209C11.6682 22.9 12.5459 25.0857 14.1082 26.6972C15.6705 28.3088 17.7894 29.2141 19.9988 29.2141C22.2082 29.2141 24.3271 28.3088 25.8894 26.6972C27.4517 25.0857 28.3294 22.9 28.3294 20.6209ZM0.140758 47.4531L4.62886 36.4431C4.64969 36.4539 4.6601 36.4646 4.67051 36.4861L5.67018 38.5377C6.88853 41.0297 9.41895 42.5443 12.1264 42.3832L14.3444 42.2435C14.3652 42.2435 14.3965 42.2435 14.4173 42.265L16.2709 43.5325C16.8019 43.887 17.3642 44.1663 17.9474 44.3596L14.032 53.9517C13.7925 54.5425 13.2614 54.9399 12.647 54.9937C12.0327 55.0474 11.4391 54.7573 11.1059 54.2203L7.75283 48.9247L1.91101 49.8163C1.31745 49.9022 0.723899 49.6551 0.349023 49.1718C-0.0258535 48.6884 -0.0987462 48.0224 0.130345 47.4531H0.140758ZM25.9656 53.941L22.0502 44.3596C22.6333 44.1663 23.1956 43.8977 23.7267 43.5325L25.5803 42.265C25.6011 42.2543 25.6219 42.2435 25.6532 42.2435L27.8712 42.3832C30.5786 42.5443 33.109 41.0297 34.3274 38.5377L35.3271 36.4861C35.3375 36.4646 35.3479 36.4539 35.3687 36.4431L39.8672 47.4531C40.0963 48.0224 40.013 48.6777 39.6486 49.1718C39.2841 49.6659 38.6801 49.9129 38.0866 49.8163L32.2447 48.9247L28.8917 54.2095C28.5585 54.7466 27.9649 55.0366 27.3505 54.9829C26.7361 54.9292 26.2051 54.521 25.9656 53.941Z" fill="url(#paint0_radial_52_1503)"/>
<defs>
<radialGradient id="paint0_radial_52_1503" cx="0" cy="0" r="1" gradientUnits="userSpaceOnUse" gradientTransform="translate(20 30.4255) rotate(90) scale(24.5745 17.8723)">
<stop offset="0.0230461" stop-color="#6B5EFF"/>
<stop offset="1" stop-color="#4A3AFF"/>
</radialGradient>
</defs>
</svg>
