<svg width="46" height="52" viewBox="0 0 46 52" fill="none" xmlns="http://www.w3.org/2000/svg">
<path d="M26.2908 51.4679C34.6498 49.7939 45.4581 43.7801 45.4581 28.2307C45.4581 14.0826 35.1017 4.65936 27.6519 0.330144C26.002 -0.632499 24.0661 0.632307 24.0661 2.54422V7.43231C24.0661 11.2882 22.4456 18.3262 17.9426 21.2543C15.6429 22.749 13.1561 20.5109 12.878 17.7834L12.6481 15.5426C12.3807 12.9381 9.72804 11.3578 7.64766 12.9461C3.90673 15.7939 0 20.7943 0 28.2281C0 47.2429 14.1428 52 21.2129 52C21.6247 52 22.0579 51.984 22.5071 51.9599C19.0149 51.6631 13.37 49.4971 13.37 42.4912C13.37 37.0095 17.3677 33.306 20.4054 31.5011C21.2236 31.0197 22.1782 31.6481 22.1782 32.5974V34.1751C22.1782 35.3784 22.6462 37.2635 23.7559 38.5524C25.0127 40.0124 26.8551 38.4829 27.0021 36.5629C27.0503 35.9586 27.6599 35.5736 28.184 35.8784C29.8981 36.8812 32.0881 39.0204 32.0881 42.4912C32.0881 47.9676 29.0691 50.4865 26.2908 51.4679Z" fill="url(#paint0_radial_52_1498)"/>
<defs>
<radialGradient id="paint0_radial_52_1498" cx="0" cy="0" r="1" gradientUnits="userSpaceOnUse" gradientTransform="translate(22.7291 28.766) rotate(90) scale(23.234 20.3111)">
<stop offset="0.0230461" stop-color="#6B5EFF"/>
<stop offset="1" stop-color="#4A3AFF"/>
</radialGradient>
</defs>
</svg>
