<svg width="50" height="52" viewBox="0 0 50 52" fill="none" xmlns="http://www.w3.org/2000/svg">
<path fill-rule="evenodd" clip-rule="evenodd" d="M25.0544 0C18.4613 0 12.4549 2.15529 8.90066 3.91622C8.57954 4.07512 8.28031 4.23113 8.00152 4.38136C7.44978 4.67895 6.97977 4.9563 6.60611 5.20043L10.6493 11.0914L12.5527 11.8411C19.991 15.5551 29.9661 15.5551 37.4059 11.8411L39.5662 10.7317L43.3889 5.20043C42.5971 4.68914 41.7737 4.22742 40.9236 3.81798C37.3869 2.07584 31.5236 0 25.0559 0H25.0544ZM15.6515 6.66811C14.2197 6.40298 12.8057 6.05178 11.4171 5.61647C14.7465 4.15312 19.7078 2.60022 25.0544 2.60022C28.7575 2.60022 32.2592 3.34561 35.1551 4.29036C31.7615 4.76273 28.1401 5.56446 24.6895 6.5511C21.9746 7.32828 18.8014 7.24449 15.6515 6.66811ZM38.9473 13.9834L38.5882 14.1625C30.4055 18.2477 19.5516 18.2477 11.3689 14.1625L11.0288 13.9921C-1.26425 27.3413 -10.6497 52 25.0544 52C60.7586 52 51.144 26.8805 38.9473 13.9834ZM23.5379 26.0022C22.7636 26.0022 22.0211 26.3066 21.4737 26.8484C20.9262 27.3902 20.6186 28.125 20.6186 28.8913C20.6186 29.6575 20.9262 30.3924 21.4737 30.9342C22.0211 31.476 22.7636 31.7804 23.5379 31.7804V26.0022ZM26.4572 23.113V21.6685H23.5379V23.113C21.9894 23.113 20.5044 23.7218 19.4094 24.8054C18.3145 25.8891 17.6993 27.3588 17.6993 28.8913C17.6993 30.4238 18.3145 31.8935 19.4094 32.9771C20.5044 34.0608 21.9894 34.6696 23.5379 34.6696V40.4478C22.268 40.4478 21.1864 39.6461 20.7836 38.5222C20.7238 38.3383 20.6274 38.1682 20.5 38.0218C20.3726 37.8755 20.2169 37.7559 20.042 37.6702C19.8671 37.5844 19.6766 37.5343 19.4818 37.5227C19.287 37.511 19.0918 37.5382 18.9078 37.6026C18.7238 37.6669 18.5547 37.7671 18.4105 37.8973C18.2663 38.0274 18.1499 38.1849 18.0683 38.3603C17.9866 38.5358 17.9414 38.7256 17.9352 38.9187C17.9289 39.1117 17.9619 39.3041 18.0321 39.4843C18.4348 40.611 19.1804 41.5865 20.1664 42.2765C21.1524 42.9664 22.3303 43.3369 23.5379 43.3369V44.7815H26.4572V43.3369C28.0056 43.3369 29.4907 42.7282 30.5856 41.6445C31.6806 40.5609 32.2957 39.0912 32.2957 37.5587C32.2957 36.0262 31.6806 34.5565 30.5856 33.4728C29.4907 32.3892 28.0056 31.7804 26.4572 31.7804V26.0022C27.727 26.0022 28.8086 26.8039 29.2115 27.9278C29.2713 28.1116 29.3677 28.2818 29.4951 28.4281C29.6224 28.5745 29.7782 28.6941 29.953 28.7798C30.1279 28.8655 30.3184 28.9157 30.5132 28.9273C30.708 28.9389 30.9032 28.9118 31.0872 28.8474C31.2713 28.7831 31.4404 28.6829 31.5846 28.5527C31.7288 28.4225 31.8451 28.2651 31.9268 28.0896C32.0084 27.9142 32.0537 27.7243 32.0599 27.5313C32.0661 27.3382 32.0331 27.1459 31.9629 26.9657C31.5603 25.839 30.8146 24.8635 29.8286 24.1735C28.8426 23.4835 27.6647 23.1131 26.4572 23.113ZM26.4572 34.6696V40.4478C27.2314 40.4478 27.9739 40.1434 28.5214 39.6016C29.0689 39.0598 29.3764 38.3249 29.3764 37.5587C29.3764 36.7924 29.0689 36.0576 28.5214 35.5158C27.9739 34.9739 27.2314 34.6696 26.4572 34.6696Z" fill="url(#paint0_radial_52_1517)"/>
<defs>
<radialGradient id="paint0_radial_52_1517" cx="0" cy="0" r="1" gradientUnits="userSpaceOnUse" gradientTransform="translate(25 28.766) rotate(90) scale(23.234 22.3404)">
<stop offset="0.0230461" stop-color="#6B5EFF"/>
<stop offset="1" stop-color="#4A3AFF"/>
</radialGradient>
</defs>
</svg>
