<svg width="58" height="52" viewBox="0 0 58 52" fill="none" xmlns="http://www.w3.org/2000/svg">
<path fill-rule="evenodd" clip-rule="evenodd" d="M23.7156 9.24074C22.7226 11.7258 20.2932 13.4815 17.4537 13.4815C14.6142 13.4815 12.1848 11.7258 11.1918 9.24074H3.49072C2.11001 9.24074 0.990723 8.12145 0.990723 6.74074C0.990723 5.36003 2.11001 4.24074 3.49072 4.24074H11.1918C12.1848 1.7557 14.6142 0 17.4537 0C20.2932 0 22.7226 1.7557 23.7156 4.24074H54.5278C55.9085 4.24074 57.0278 5.36003 57.0278 6.74074C57.0278 8.12145 55.9085 9.24074 54.5278 9.24074H23.7156ZM45.8638 28.5C44.8708 30.985 42.4413 32.7407 39.6018 32.7407C36.7623 32.7407 34.3329 30.985 33.3399 28.5H3.49072C2.11001 28.5 0.990723 27.3807 0.990723 26C0.990723 24.6193 2.11001 23.5 3.49072 23.5H33.3399C34.3329 21.015 36.7623 19.2593 39.6018 19.2593C42.4413 19.2593 44.8708 21.015 45.8638 23.5H54.5278C55.9085 23.5 57.0278 24.6193 57.0278 26C57.0278 27.3807 55.9085 28.5 54.5278 28.5H45.8638ZM35.2712 42.7593H55.0092C56.39 42.7593 57.5092 43.8785 57.5092 45.2593C57.5092 46.64 56.39 47.7593 55.0092 47.7593H35.2712C34.2782 50.2443 31.8487 52 29.0092 52C26.1698 52 23.7403 50.2443 22.7473 47.7593H3.9722C2.59149 47.7593 1.4722 46.64 1.4722 45.2593C1.4722 43.8785 2.59149 42.7593 3.9722 42.7593H22.7473C23.7403 40.2742 26.1697 38.5185 29.0092 38.5185C31.8487 38.5185 34.2782 40.2742 35.2712 42.7593Z" fill="url(#paint0_radial_52_1531)"/>
<defs>
<radialGradient id="paint0_radial_52_1531" cx="0" cy="0" r="1" gradientUnits="userSpaceOnUse" gradientTransform="translate(29.25 28.766) rotate(90) scale(23.234 25.253)">
<stop offset="0.0230461" stop-color="#6B5EFF"/>
<stop offset="1" stop-color="#4A3AFF"/>
</radialGradient>
</defs>
</svg>
