<svg width="55" height="59" viewBox="0 0 55 59" fill="none" xmlns="http://www.w3.org/2000/svg">
<path fill-rule="evenodd" clip-rule="evenodd" d="M23.7639 0C22.8588 0 22.125 0.733755 22.125 1.63889V5.36255C9.53775 7.67464 0 18.7027 0 31.9583C0 46.893 12.107 59 27.0417 59C41.9764 59 54.0833 46.893 54.0833 31.9583C54.0833 18.7027 44.5456 7.67464 31.9583 5.36255V1.63889C31.9583 0.733756 31.2246 0 30.3194 0H23.7639ZM44.1692 5.28652C45.0297 4.1771 46.6267 3.97532 47.7361 4.83585L50.841 7.24415C51.9504 8.10467 52.1522 9.70163 51.2917 10.8111C50.4311 11.9205 48.8342 12.1223 47.7247 11.2617L44.6199 8.85343C43.5104 7.99291 43.3087 6.39595 44.1692 5.28652ZM26.6319 10.9206V32.3681L40.7246 47.9441C45.229 44.085 48.0833 38.355 48.0833 31.9583C48.0833 20.3373 38.6627 10.9167 27.0417 10.9167C26.9048 10.9167 26.7682 10.918 26.6319 10.9206Z" fill="url(#paint0_radial_52_1508)"/>
<defs>
<radialGradient id="paint0_radial_52_1508" cx="0" cy="0" r="1" gradientUnits="userSpaceOnUse" gradientTransform="translate(27.0417 32.6383) rotate(90) scale(26.3617 24.1649)">
<stop offset="0.0230461" stop-color="#6B5EFF"/>
<stop offset="1" stop-color="#4A3AFF"/>
</radialGradient>
</defs>
</svg>
