<svg width="53" height="59" viewBox="0 0 53 59" fill="none" xmlns="http://www.w3.org/2000/svg">
<path d="M14.7524 2.10714C14.7524 1.54829 14.9744 1.01233 15.3696 0.617168C15.7648 0.222002 16.3009 0 16.8598 0H33.7197C34.2786 0 34.8146 0.222002 35.2099 0.617168C35.6051 1.01233 35.8271 1.54829 35.8271 2.10714C35.8271 2.66599 35.6051 3.20195 35.2099 3.59712C34.8146 3.99228 34.2786 4.21429 33.7197 4.21429H16.8598C16.3009 4.21429 15.7648 3.99228 15.3696 3.59712C14.9744 3.20195 14.7524 2.66599 14.7524 2.10714ZM25.2897 59C31.997 59 38.4296 56.336 43.1723 51.594C47.915 46.852 50.5795 40.4205 50.5795 33.7143C50.5795 27.0081 47.915 20.5766 43.1723 15.8346C38.4296 11.0926 31.997 8.42857 25.2897 8.42857C18.5825 8.42857 12.1499 11.0926 7.4072 15.8346C2.66445 20.5766 0 27.0081 0 33.7143C0 40.4205 2.66445 46.852 7.4072 51.594C12.1499 56.336 18.5825 59 25.2897 59ZM25.2897 16.8571C25.8487 16.8571 26.3847 17.0791 26.78 17.4743C27.1752 17.8695 27.3972 18.4054 27.3972 18.9643V35.8214C27.3972 36.3803 27.1752 36.9162 26.78 37.3114C26.3847 37.7066 25.8487 37.9286 25.2897 37.9286C24.7308 37.9286 24.1948 37.7066 23.7995 37.3114C23.4043 36.9162 23.1823 36.3803 23.1823 35.8214V18.9643C23.1823 18.4054 23.4043 17.8695 23.7995 17.4743C24.1948 17.0791 24.7308 16.8571 25.2897 16.8571ZM46.1664 6.91986C45.972 6.7186 45.7395 6.55808 45.4824 6.44764C45.2252 6.33721 44.9487 6.27908 44.6689 6.27665C44.389 6.27422 44.1115 6.32753 43.8525 6.43348C43.5935 6.53943 43.3582 6.69589 43.1603 6.89374C42.9625 7.09158 42.806 7.32685 42.7 7.58581C42.594 7.84477 42.5407 8.12224 42.5431 8.40202C42.5456 8.68181 42.6037 8.95831 42.7142 9.21539C42.8246 9.47247 42.9852 9.70498 43.1865 9.89936L49.1 15.812C49.2945 16.0133 49.527 16.1738 49.7841 16.2842C50.0412 16.3946 50.3178 16.4528 50.5976 16.4552C50.8774 16.4576 51.155 16.4043 51.414 16.2984C51.673 16.1924 51.9083 16.036 52.1061 15.8381C52.304 15.6403 52.4605 15.405 52.5665 15.146C52.6724 14.8871 52.7258 14.6096 52.7233 14.3298C52.7209 14.05 52.6628 13.7736 52.5523 13.5165C52.4419 13.2594 52.2813 13.0269 52.08 12.8325L46.1664 6.91986Z" fill="url(#paint0_radial_52_1522)"/>
<defs>
<radialGradient id="paint0_radial_52_1522" cx="0" cy="0" r="1" gradientUnits="userSpaceOnUse" gradientTransform="translate(26.3617 32.6383) rotate(90) scale(26.3617 23.5573)">
<stop offset="0.0230461" stop-color="#6B5EFF"/>
<stop offset="1" stop-color="#4A3AFF"/>
</radialGradient>
</defs>
</svg>
