<svg width="245" height="81" viewBox="0 0 245 81" fill="none" xmlns="http://www.w3.org/2000/svg">
  <path
    d="M45.3624 23.103C47.0902 21.0515 47.9414 18.4147 47.7353 15.7524C45.0956 16.0267 42.6572 17.2745 40.9061 19.2472C40.0499 20.211 39.3941 21.3322 38.9763 22.5467C38.5585 23.7613 38.3868 25.0454 38.471 26.3256C39.7914 26.3391 41.0975 26.056 42.2912 25.4978C43.4849 24.9396 44.535 24.1208 45.3624 23.103Z"
    fill="#4A3AFF" />
  <path
    d="M51.1782 40.1393C51.2011 38.3817 51.6732 36.6584 52.5504 35.1297C53.4276 33.601 54.6816 32.3165 56.1956 31.396C55.2338 30.0374 53.965 28.9193 52.4899 28.1306C51.0148 27.3419 49.3741 26.9042 47.6981 26.8523C45.5111 26.6253 43.3651 27.4677 41.6112 28.1562C40.4977 28.5933 39.5423 28.9683 38.8349 28.9683C38.0301 28.9683 37.0473 28.5779 35.946 28.1404C34.5061 27.5683 32.8637 26.9158 31.1521 26.9507C29.1983 27.0131 27.2941 27.575 25.6252 28.5817C23.9563 29.5884 22.5794 31.0055 21.6289 32.695C17.5113 39.746 20.5826 50.1087 24.527 55.8083C26.5004 58.5992 28.8068 61.7167 31.8247 61.6062C33.1937 61.55 34.1651 61.1457 35.1684 60.7281C36.3295 60.2448 37.5333 59.7437 39.4455 59.7437C41.2486 59.7437 42.4008 60.2291 43.5065 60.695C44.5666 61.1417 45.5839 61.5703 47.091 61.5359C50.2599 61.485 52.2565 58.7326 54.1607 55.9153C55.5786 53.9266 56.6697 51.7288 57.3936 49.4031C55.5525 48.6329 53.9814 47.3438 52.8762 45.6964C51.7709 44.0491 51.1804 42.1164 51.1782 40.1393Z"
    fill="#4A3AFF" />
  <path
    d="M147.982 57.3876C144.835 57.3876 142.532 55.8479 142.266 53.5029L138.604 53.5027C138.835 57.7798 142.415 60.4856 147.717 60.4856C153.384 60.4856 156.945 57.7148 156.945 53.2907C156.945 49.8319 154.909 47.8829 150.003 46.7355L147.369 46.0958C144.288 45.3427 143.028 44.359 143.028 42.6872C143.028 40.5895 145 39.1483 147.883 39.1483C150.765 39.1483 152.737 40.5728 152.953 42.9327H156.565C156.449 38.8526 152.985 36.0502 147.932 36.0502C142.829 36.0502 139.234 38.8526 139.234 42.9327C139.234 46.2279 141.272 48.2586 145.662 49.3075L148.761 50.0457C151.859 50.7989 153.168 51.8979 153.168 53.7334C153.168 55.8478 150.998 57.3876 147.982 57.3876Z"
    fill="#4A3AFF" />
  <path fill-rule="evenodd" clip-rule="evenodd"
    d="M76.5339 53.7H85.6472L87.8339 60.0915H91.7598L83.1278 36.4445H79.1173L70.4854 60.0915H74.3454L76.5339 53.7ZM84.7016 50.7506H77.4778L81.0408 40.3776H81.1405L84.7016 50.7506Z"
    fill="#4A3AFF" />
  <path fill-rule="evenodd" clip-rule="evenodd"
    d="M110.402 51.4717C110.402 56.8293 107.503 60.2714 103.128 60.2714C102.019 60.3288 100.917 60.0763 99.947 59.5428C98.977 59.0093 98.1785 58.2165 97.643 57.2551H97.5602V65.7945H93.9822V42.8504H97.4455V45.718H97.5113C98.0715 44.7612 98.8835 43.9724 99.8608 43.4357C100.838 42.899 101.944 42.6344 103.062 42.67C107.486 42.6701 110.402 46.129 110.402 51.4717ZM106.724 51.4717C106.724 47.9812 104.901 45.6864 102.118 45.6864C99.384 45.6864 97.5452 48.0295 97.5452 51.4717C97.5452 54.9455 99.384 57.2719 102.118 57.2719C104.901 57.2719 106.724 54.9938 106.724 51.4717Z"
    fill="#4A3AFF" />
  <path fill-rule="evenodd" clip-rule="evenodd"
    d="M129.588 51.4717C129.588 56.8293 126.688 60.2714 122.313 60.2714C121.205 60.3288 120.102 60.0763 119.133 59.5428C118.163 59.0093 117.364 58.2165 116.829 57.2551H116.746V65.7945H113.168V42.8504H116.631V45.718H116.697C117.257 44.7612 118.069 43.9724 119.046 43.4357C120.024 42.899 121.13 42.6344 122.247 42.67C126.671 42.6701 129.588 46.129 129.588 51.4717ZM125.91 51.4717C125.91 47.9812 124.086 45.6864 121.303 45.6864C118.57 45.6864 116.731 48.0295 116.731 51.4717C116.731 54.9455 118.57 57.2719 121.303 57.2719C124.086 57.2719 125.91 54.9938 125.91 51.4717Z"
    fill="#4A3AFF" />
  <path
    d="M164.671 42.8524V38.7723H161.076V42.8524H158.542V45.6548H161.076V55.5368C161.076 58.8804 162.452 60.1915 165.981 60.1915C166.648 60.2037 167.314 60.1489 167.969 60.0278V57.2421C167.578 57.2899 167.185 57.3172 166.792 57.324C165.335 57.324 164.671 56.6359 164.671 55.1594V45.6548H167.986V42.8524H164.671Z"
    fill="#4A3AFF" />
  <path fill-rule="evenodd" clip-rule="evenodd"
    d="M178.171 42.6404C173.134 42.6404 169.904 46.0491 169.904 51.4736C169.904 56.913 173.102 60.3068 178.171 60.3068C183.242 60.3068 186.44 56.913 186.44 51.4736C186.44 46.049 183.225 42.6404 178.171 42.6404ZM178.171 45.5563C181.07 45.5563 182.794 47.7525 182.794 51.4736C182.794 55.2096 181.07 57.3891 178.171 57.3891C175.271 57.3891 173.547 55.2096 173.547 51.4736C173.547 47.7692 175.271 45.5563 178.171 45.5563Z"
    fill="#4A3AFF" />
  <path
    d="M192.802 42.8503H189.39L189.39 60.0909H192.968V49.8648C192.909 49.3535 192.963 48.8358 193.125 48.347C193.288 47.8582 193.555 47.4101 193.91 47.0332C194.264 46.6564 194.696 46.3598 195.177 46.1639C195.658 45.968 196.177 45.8773 196.696 45.8982C197.24 45.8825 197.783 45.9547 198.304 46.112V42.8019C197.902 42.7127 197.49 42.6684 197.078 42.6699C196.124 42.6338 195.186 42.9238 194.423 43.4911C193.659 44.0583 193.116 44.8682 192.885 45.7847H192.802V42.8503Z"
    fill="#4A3AFF" />
  <path fill-rule="evenodd" clip-rule="evenodd"
    d="M207.295 60.3068C211.238 60.3068 214.319 58.159 214.801 55.0292L211.403 55.0292C211.086 55.8082 210.522 56.465 209.797 56.9019C209.072 57.3388 208.223 57.5325 207.378 57.4542C206.734 57.4776 206.093 57.3653 205.497 57.1248C204.9 56.8843 204.362 56.521 203.919 56.0592C203.475 55.5973 203.136 55.0474 202.924 54.4459C202.712 53.8445 202.632 53.2053 202.689 52.5708V52.3569H215V51.1445C215 45.917 211.967 42.6404 207.145 42.6404C202.241 42.6404 199.077 46.1476 199.077 51.5554C199.077 56.9465 202.224 60.3068 207.295 60.3068ZM211.42 49.8836H202.705C202.704 49.3073 202.818 48.7365 203.041 48.2039C203.263 47.6714 203.59 47.1878 204.003 46.781C204.416 46.3742 204.906 46.0522 205.445 45.8337C205.984 45.6152 206.562 45.5045 207.145 45.5079C207.722 45.4957 208.296 45.6016 208.83 45.8191C209.365 46.0366 209.848 46.3609 210.249 46.7718C210.65 47.1827 210.962 47.6712 211.163 48.2067C211.365 48.7422 211.452 49.3131 211.42 49.8836Z"
    fill="#4A3AFF" />
  <path d="M122.808 16.947H120.989V29.625H122.808V16.947Z" fill="#4A3AFF" />
  <path fill-rule="evenodd" clip-rule="evenodd"
    d="M77.4454 17.5422C78.2431 17.4855 79.0436 17.6047 79.789 17.8911C80.5345 18.1775 81.2065 18.624 81.7564 19.1983C82.3063 19.7727 82.7204 20.4606 82.969 21.2124C83.2175 21.9642 83.2943 22.7612 83.1937 23.546C83.1937 27.4061 81.0844 29.625 77.4454 29.625H73.0327V17.5422H77.4454ZM74.9301 27.9162H77.2335C77.8035 27.9499 78.3739 27.8575 78.9032 27.6456C79.4326 27.4338 79.9075 27.1079 80.2934 26.6916C80.6793 26.2753 80.9665 25.7792 81.1341 25.2393C81.3017 24.6994 81.3455 24.1293 81.2623 23.5706C81.3395 23.014 81.2913 22.4475 81.1211 21.9116C80.9509 21.3756 80.663 20.8835 80.2779 20.4706C79.8929 20.0576 79.4203 19.734 78.8939 19.5229C78.3676 19.3118 77.8006 19.2185 77.2335 19.2497H74.9301V27.9162Z"
    fill="#4A3AFF" />
  <path fill-rule="evenodd" clip-rule="evenodd"
    d="M85.5405 23.2883C85.3483 23.8595 85.279 24.4641 85.337 25.0633C85.2779 25.6632 85.3464 26.2686 85.538 26.8407C85.7296 27.4128 86.0402 27.939 86.4496 28.3853C86.8591 28.8316 87.3584 29.1883 87.9156 29.4324C88.4727 29.6765 89.0753 29.8026 89.6847 29.8026C90.2941 29.8026 90.8967 29.6765 91.4538 29.4324C92.011 29.1883 92.5103 28.8316 92.9198 28.3853C93.3292 27.939 93.6398 27.4128 93.8314 26.8407C94.023 26.2686 94.0915 25.6632 94.0324 25.0633C94.0904 24.4641 94.0211 23.8595 93.8289 23.2883C93.6368 22.7171 93.3261 22.1919 92.9167 21.7465C92.5074 21.301 92.0084 20.9451 91.4518 20.7015C90.8952 20.458 90.2933 20.3322 89.6847 20.3322C89.0761 20.3322 88.4742 20.458 87.9176 20.7015C87.361 20.9451 86.862 21.301 86.4526 21.7465C86.0433 22.1919 85.7326 22.7171 85.5405 23.2883ZM89.6877 21.9309C91.2632 21.9309 92.1609 23.0868 92.1609 25.0633C92.1609 27.0478 91.2632 28.2027 89.6877 28.2027C88.1062 28.2027 87.2165 27.0557 87.2165 25.0633C87.2165 23.0868 88.1062 21.9309 89.6877 21.9309Z"
    fill="#4A3AFF" />
  <path
    d="M103.704 29.625H105.591L108.122 20.5066H106.303L104.659 27.4645H104.516L102.62 20.5066H100.875L98.9791 27.4645H98.8432L97.1917 20.5066H95.3462L97.8874 29.625H99.7569L101.654 22.9093H101.798L103.704 29.625Z"
    fill="#4A3AFF" />
  <path
    d="M112.011 20.5059H110.26L110.26 29.6243H112.079V24.2899C112.047 23.9901 112.081 23.6868 112.178 23.4011C112.275 23.1153 112.434 22.8537 112.643 22.6342C112.852 22.4147 113.107 22.2425 113.389 22.1295C113.672 22.0164 113.976 21.9652 114.281 21.9792C115.626 21.9792 116.27 22.7079 116.27 24.1733V29.6242H118.089V23.7214C118.155 23.2812 118.12 22.8321 117.987 22.4072C117.853 21.9823 117.625 21.5926 117.318 21.2669C117.012 20.9412 116.635 20.6878 116.216 20.5256C115.797 20.3634 115.347 20.2965 114.898 20.3299C114.326 20.2839 113.753 20.4156 113.26 20.7069C112.767 20.9981 112.378 21.4342 112.147 21.9545H112.011V20.5059Z"
    fill="#4A3AFF" />
  <path fill-rule="evenodd" clip-rule="evenodd"
    d="M125.337 25.0603C125.279 24.461 125.349 23.8564 125.541 23.2852C125.733 22.714 126.044 22.1888 126.453 21.7433C126.863 21.2978 127.362 20.9419 127.918 20.6984C128.475 20.4548 129.077 20.329 129.686 20.329C130.294 20.329 130.896 20.4548 131.453 20.6984C132.009 20.9419 132.508 21.2978 132.918 21.7433C133.327 22.1888 133.638 22.714 133.83 23.2852C134.022 23.8564 134.092 24.461 134.034 25.0603C134.093 25.6602 134.024 26.2656 133.833 26.8377C133.641 27.4099 133.33 27.936 132.921 28.3823C132.511 28.8286 132.012 29.1853 131.455 29.4294C130.898 29.6734 130.295 29.7995 129.686 29.7995C129.076 29.7995 128.474 29.6734 127.916 29.4294C127.359 29.1853 126.86 28.8286 126.45 28.3823C126.041 27.936 125.73 27.4099 125.539 26.8377C125.347 26.2656 125.278 25.6602 125.337 25.0603ZM132.161 25.0603C132.161 23.0838 131.264 21.9279 129.688 21.9279C128.107 21.9279 127.217 23.0838 127.217 25.0603C127.217 27.0527 128.107 28.1997 129.688 28.1997C131.264 28.1997 132.161 27.0448 132.161 25.0603Z"
    fill="#4A3AFF" />
  <path fill-rule="evenodd" clip-rule="evenodd"
    d="M135.949 27.0479C135.949 25.4065 137.185 24.4603 139.378 24.3258L141.875 24.1834V23.3963C141.875 22.4333 141.232 21.8895 139.988 21.8895C138.972 21.8895 138.269 22.2583 138.067 22.903H136.305C136.491 21.3367 137.981 20.3322 140.072 20.3322C142.383 20.3322 143.687 21.4702 143.687 23.3963V29.6266H141.935V28.3451H141.792C141.499 28.8048 141.089 29.1795 140.602 29.4311C140.116 29.6826 139.571 29.8019 139.022 29.7768C138.635 29.8166 138.244 29.7758 137.874 29.6569C137.504 29.5381 137.163 29.3438 136.874 29.0867C136.584 28.8296 136.352 28.5153 136.193 28.1642C136.034 27.813 135.951 27.4327 135.949 27.0479ZM141.875 26.2687V25.5064L139.624 25.6488C138.355 25.7328 137.779 26.1599 137.779 26.9638C137.779 27.7845 138.498 28.2621 139.488 28.2621C139.778 28.2911 140.071 28.2621 140.35 28.1769C140.628 28.0917 140.886 27.9519 141.109 27.7659C141.332 27.5799 141.514 27.3516 141.646 27.0943C141.778 26.8371 141.856 26.5563 141.875 26.2687Z"
    fill="#4A3AFF" />
  <path fill-rule="evenodd" clip-rule="evenodd"
    d="M146.078 25.0619C146.078 22.1806 147.576 20.3553 149.905 20.3553C150.481 20.3291 151.053 20.4656 151.554 20.7489C152.055 21.0321 152.463 21.4505 152.732 21.9551H152.868V16.947H154.688V29.625H152.944V28.1844H152.8C152.51 28.6855 152.087 29.0987 151.577 29.3791C151.067 29.6596 150.489 29.7966 149.905 29.7753C147.56 29.7754 146.078 27.9501 146.078 25.0619ZM147.958 25.0619C147.958 26.9959 148.88 28.1597 150.421 28.1597C151.955 28.1597 152.902 26.9791 152.902 25.0698C152.902 23.1694 151.945 21.972 150.421 21.972C148.89 21.972 147.958 23.1437 147.958 25.0619Z"
    fill="#4A3AFF" />
  <path fill-rule="evenodd" clip-rule="evenodd"
    d="M162.215 25.0633C162.157 24.4641 162.227 23.8595 162.419 23.2883C162.611 22.7171 162.922 22.1919 163.331 21.7465C163.74 21.301 164.239 20.9451 164.796 20.7015C165.353 20.458 165.954 20.3322 166.563 20.3322C167.172 20.3322 167.774 20.458 168.33 20.7015C168.887 20.9451 169.386 21.301 169.795 21.7465C170.205 22.1919 170.515 22.7171 170.707 23.2883C170.899 23.8595 170.969 24.4641 170.911 25.0633C170.97 25.6632 170.901 26.2686 170.71 26.8407C170.518 27.4128 170.208 27.939 169.798 28.3853C169.389 28.8316 168.889 29.1883 168.332 29.4324C167.775 29.6765 167.172 29.8026 166.563 29.8026C165.954 29.8026 165.351 29.6765 164.794 29.4324C164.237 29.1883 163.738 28.8316 163.328 28.3853C162.919 27.939 162.608 27.4128 162.416 26.8407C162.225 26.2686 162.156 25.6632 162.215 25.0633ZM169.039 25.0633C169.039 23.0868 168.142 21.9309 166.566 21.9309C164.985 21.9309 164.095 23.0868 164.095 25.0633C164.095 27.0557 164.985 28.2027 166.566 28.2027C168.142 28.2027 169.039 27.0478 169.039 25.0633Z"
    fill="#4A3AFF" />
  <path
    d="M173.352 20.5059H175.104V21.9545H175.24C175.47 21.4342 175.859 20.9981 176.353 20.7069C176.846 20.4156 177.418 20.2839 177.991 20.3299C178.44 20.2965 178.89 20.3634 179.309 20.5256C179.728 20.6878 180.104 20.9412 180.411 21.2669C180.717 21.5926 180.946 21.9823 181.079 22.4072C181.213 22.8321 181.248 23.2812 181.182 23.7214V29.6242H179.363V24.1733C179.363 22.7079 178.719 21.9792 177.373 21.9792C177.069 21.9652 176.765 22.0164 176.482 22.1295C176.199 22.2425 175.945 22.4147 175.736 22.6342C175.526 22.8537 175.368 23.1153 175.27 23.4011C175.173 23.6868 175.139 23.9901 175.172 24.2899V29.6243H173.352V20.5059Z"
    fill="#4A3AFF" />
  <path
    d="M191.463 18.2363V20.5481H193.46V22.0639H191.463V26.7526C191.463 27.7078 191.861 28.126 192.767 28.126C192.999 28.1253 193.23 28.1114 193.46 28.0845V29.5834C193.134 29.6412 192.803 29.672 192.471 29.6754C190.447 29.6754 189.642 28.9714 189.642 27.2134V22.0638H188.178V20.548H189.642V18.2363H191.463Z"
    fill="#4A3AFF" />
  <path
    d="M195.946 16.947H197.749V21.972H197.893C198.135 21.4468 198.535 21.0082 199.038 20.7159C199.541 20.4236 200.123 20.2918 200.704 20.3385C201.15 20.3145 201.596 20.3882 202.011 20.5543C202.425 20.7205 202.797 20.9749 203.1 21.2996C203.403 21.6243 203.63 22.0112 203.765 22.4327C203.9 22.8541 203.939 23.2998 203.879 23.7379V29.625H202.058V24.1818C202.058 22.7254 201.372 21.9878 200.086 21.9878C199.774 21.9624 199.459 22.0049 199.165 22.1123C198.87 22.2198 198.603 22.3895 198.382 22.6097C198.161 22.8299 197.991 23.0952 197.885 23.3871C197.778 23.679 197.737 23.9904 197.765 24.2995V29.625H195.946L195.946 16.947Z"
    fill="#4A3AFF" />
  <path fill-rule="evenodd" clip-rule="evenodd"
    d="M214.488 27.1615C214.241 27.9949 213.705 28.7158 212.975 29.198C212.245 29.6803 211.366 29.8932 210.493 29.7995C209.886 29.8154 209.282 29.7003 208.724 29.4624C208.167 29.2244 207.668 28.8691 207.262 28.4213C206.857 27.9735 206.555 27.4439 206.378 26.8691C206.2 26.2944 206.152 25.6883 206.235 25.093C206.154 24.4959 206.204 23.8885 206.381 23.3121C206.558 22.7356 206.858 22.2035 207.261 21.7518C207.664 21.3 208.161 20.9392 208.717 20.6938C209.273 20.4484 209.876 20.324 210.485 20.3291C213.051 20.3291 214.598 22.0625 214.598 24.9259V25.5538H208.088V25.6547C208.06 25.9893 208.102 26.3261 208.213 26.6435C208.324 26.9609 208.5 27.2519 208.732 27.4979C208.963 27.7438 209.243 27.9393 209.555 28.0717C209.867 28.2042 210.204 28.2706 210.543 28.2669C210.979 28.3186 211.42 28.2411 211.81 28.0442C212.201 27.8474 212.523 27.5401 212.737 27.1615L214.488 27.1615ZM208.088 24.2229H212.745C212.768 23.9169 212.726 23.6095 212.621 23.3205C212.517 23.0315 212.353 22.7672 212.139 22.5448C211.925 22.3223 211.667 22.1465 211.38 22.0287C211.094 21.9109 210.786 21.8537 210.475 21.8607C210.161 21.8568 209.848 21.9153 209.557 22.0326C209.265 22.1499 209.001 22.3238 208.778 22.544C208.556 22.7641 208.38 23.0261 208.261 23.3144C208.143 23.6028 208.084 23.9117 208.088 24.2229Z"
    fill="#4A3AFF" />
  <path fill-rule="evenodd" clip-rule="evenodd"
    d="M0 40.8612C0 18.7698 18.1443 0.861206 40.5263 0.861206H204.474C226.856 0.861206 245 18.7698 245 40.8612C245 62.9526 226.856 80.8612 204.474 80.8612H40.5263C18.1443 80.8612 0 62.9526 0 40.8612ZM40.5263 3.86121H204.474C225.236 3.86121 242 20.4635 242 40.8612C242 61.2589 225.236 77.8612 204.474 77.8612H40.5263C19.764 77.8612 3 61.2589 3 40.8612C3 20.4635 19.764 3.86121 40.5263 3.86121Z"
    fill="#4A3AFF" />
</svg>  