<svg width="171" height="29" viewBox="0 0 171 29" fill="none" xmlns="http://www.w3.org/2000/svg">
<path d="M7.76215 27.851L0.397583 0.400024H6.80819L11.4254 19.6157L16.5767 0.400024H21.5373L26.6887 19.6157L31.3059 0.400024H37.7165L30.3519 27.851H23.4071L19.057 11.6549L14.707 27.851H7.76215Z" fill="#170F49"/>
<path d="M51.7769 8.24316H57.5007V27.851H51.7769V26.0079C50.4287 27.6026 48.5335 28.4 46.0913 28.4C43.5729 28.4 41.4233 27.4066 39.6426 25.4196C37.8618 23.4066 36.9715 20.949 36.9715 18.0471C36.9715 15.1451 37.8618 12.7007 39.6426 10.7138C41.4233 8.70068 43.5729 7.69414 46.0913 7.69414C48.5335 7.69414 50.4287 8.49153 51.7769 10.0863V8.24316ZM43.9545 21.5373C44.7939 22.4 45.8878 22.8314 47.2361 22.8314C48.5843 22.8314 49.6782 22.4 50.5177 21.5373C51.3572 20.6745 51.7769 19.5111 51.7769 18.0471C51.7769 16.583 51.3572 15.4196 50.5177 14.5569C49.6782 13.6941 48.5843 13.2628 47.2361 13.2628C45.8878 13.2628 44.7939 13.6941 43.9545 14.5569C43.115 15.4196 42.6952 16.583 42.6952 18.0471C42.6952 19.5111 43.115 20.6745 43.9545 21.5373Z" fill="#170F49"/>
<path d="M72.8803 13.8902H68.95V20.8314C68.95 21.6157 69.2553 22.1124 69.8658 22.3216C70.4763 22.5307 71.4812 22.5961 72.8803 22.5177V27.851C69.2425 28.2432 66.7241 27.8902 65.3249 26.7922C63.9258 25.668 63.2262 23.6811 63.2262 20.8314V13.8902H60.1736V8.24316H63.2262V4.51767L68.95 2.75297V8.24316H72.8803V13.8902Z" fill="#170F49"/>
<path d="M81.3532 13.9687C81.3532 14.3608 81.6712 14.6876 82.3072 14.949C82.9686 15.1843 83.7572 15.4327 84.673 15.6941C85.5888 15.9294 86.5046 16.2432 87.4204 16.6353C88.3362 17.0275 89.1121 17.6811 89.7481 18.5961C90.4095 19.485 90.7402 20.6092 90.7402 21.9687C90.7402 24.0863 89.977 25.6941 88.4507 26.7922C86.9244 27.8641 85.0419 28.4 82.8033 28.4C78.7839 28.4 76.0492 26.8445 74.5992 23.7334L79.5598 20.8314C80.0686 22.3739 81.1497 23.1451 82.8033 23.1451C84.177 23.1451 84.8638 22.7399 84.8638 21.9294C84.8638 21.5373 84.5331 21.2105 83.8717 20.949C83.2357 20.6876 82.4598 20.4392 81.544 20.2039C80.6282 19.9425 79.7124 19.6157 78.7966 19.2236C77.8808 18.8053 77.0922 18.1647 76.4308 17.302C75.7948 16.4392 75.4769 15.3804 75.4769 14.1255C75.4769 12.0863 76.1891 10.5046 77.6137 9.38042C79.0637 8.25623 80.8445 7.69414 82.9559 7.69414C84.5331 7.69414 85.9704 8.06016 87.2678 8.79218C88.5652 9.49806 89.6082 10.5307 90.3968 11.8902L85.5125 14.5961C84.902 13.4458 84.0498 12.8706 82.9559 12.8706C81.8875 12.8706 81.3532 13.2366 81.3532 13.9687Z" fill="#170F49"/>
<path d="M109.743 25.4196C107.785 27.4066 105.393 28.4 102.57 28.4C99.7459 28.4 97.3546 27.4066 95.3958 25.4196C93.437 23.4066 92.4576 20.949 92.4576 18.0471C92.4576 15.1451 93.437 12.7007 95.3958 10.7138C97.3546 8.70068 99.7459 7.69414 102.57 7.69414C105.393 7.69414 107.785 8.70068 109.743 10.7138C111.702 12.7007 112.682 15.1451 112.682 18.0471C112.682 20.949 111.702 23.4066 109.743 25.4196ZM99.4406 21.3804C100.28 22.2432 101.323 22.6745 102.57 22.6745C103.816 22.6745 104.859 22.2432 105.699 21.3804C106.538 20.5177 106.958 19.4066 106.958 18.0471C106.958 16.6876 106.538 15.5765 105.699 14.7137C104.859 13.851 103.816 13.4196 102.57 13.4196C101.323 13.4196 100.28 13.851 99.4406 14.7137C98.6011 15.5765 98.1814 16.6876 98.1814 18.0471C98.1814 19.4066 98.6011 20.5177 99.4406 21.3804Z" fill="#170F49"/>
<path d="M127.099 7.69414C129.135 7.69414 130.826 8.4131 132.175 9.851C133.548 11.2889 134.235 13.2758 134.235 15.8118V27.851H128.511V16.6745C128.511 15.5242 128.193 14.6484 127.557 14.0471C126.947 13.4196 126.158 13.1059 125.192 13.1059C124.098 13.1059 123.233 13.4458 122.597 14.1255C121.961 14.8053 121.643 15.8118 121.643 17.1451V27.851H115.919V8.24316H121.643V10.0863C122.788 8.49153 124.606 7.69414 127.099 7.69414Z" fill="#170F49"/>
<path d="M155.337 27.851L154.001 23.5373H144.08L142.745 27.851H136.067L145.149 0.400024H152.933L162.015 27.851H155.337ZM145.912 17.6549H152.17L149.041 7.5765L145.912 17.6549Z" fill="#4A3AFF"/>
<path d="M164.292 0.400024H170.398V27.851H164.292V0.400024Z" fill="#4A3AFF"/>
</svg>
